<?xml version="1.0" encoding="UTF-8" standalone="no"?>
<!DOCTYPE svg PUBLIC "-//W3C//DTD SVG 1.1//EN" "http://www.w3.org/Graphics/SVG/1.1/DTD/svg11.dtd">
<svg width="100%" height="100%" viewBox="0 0 300 280" version="1.1" xmlns="http://www.w3.org/2000/svg" xmlns:xlink="http://www.w3.org/1999/xlink" xml:space="preserve" xmlns:serif="http://www.serif.com/" style="fill-rule:evenodd;clip-rule:evenodd;stroke-linecap:round;">
    <g id="Layer_1" transform="matrix(1,0,0,1,0,8.2675)">
        <g transform="matrix(1,0,0,1,3,-12)">
            <path d="M215.856,14.673L284.807,49.149" style="fill-opacity:0;fill-rule:nonzero;stroke:black;stroke-width:14px;"/>
            <path d="M284.807,49.149L284.807,124.995" style="fill-opacity:0;fill-rule:nonzero;stroke:black;stroke-width:14px;"/>
            <path d="M146.906,49.149L215.856,83.624" style="fill-opacity:0;fill-rule:nonzero;stroke:black;stroke-width:14px;"/>
            <path d="M215.856,83.624L215.856,159.47" style="fill-opacity:0;fill-rule:nonzero;stroke:black;stroke-width:14px;"/>
            <path d="M215.856,159.47L215.856,235.316" style="fill-opacity:0;fill-rule:nonzero;stroke:black;stroke-width:14px;"/>
            <path d="M215.856,159.47L284.807,124.995" style="fill-opacity:0;fill-rule:nonzero;stroke:black;stroke-width:14px;"/>
            <path d="M146.906,269.791L215.856,235.316" style="fill-opacity:0;fill-rule:nonzero;stroke:black;stroke-width:14px;"/>
            <path d="M146.906,49.149L215.856,14.673" style="fill-opacity:0;fill-rule:nonzero;stroke:black;stroke-width:14px;"/>
            <path d="M146.906,193.945L215.856,159.47" style="fill-opacity:0;fill-rule:nonzero;stroke:black;stroke-width:14px;"/>
            <path d="M77.955,14.673L9.004,49.149" style="fill-opacity:0;fill-rule:nonzero;stroke:black;stroke-width:14px;"/>
            <path d="M9.004,49.149L9.004,124.995" style="fill-opacity:0;fill-rule:nonzero;stroke:black;stroke-width:14px;"/>
            <path d="M146.906,49.149L77.955,83.624" style="fill-opacity:0;fill-rule:nonzero;stroke:black;stroke-width:14px;"/>
            <path d="M77.955,83.624L77.955,159.47" style="fill-opacity:0;fill-rule:nonzero;stroke:black;stroke-width:14px;"/>
            <path d="M77.955,159.47L77.955,235.316" style="fill-opacity:0;fill-rule:nonzero;stroke:black;stroke-width:14px;"/>
            <path d="M77.955,159.47L9.004,124.995" style="fill-opacity:0;fill-rule:nonzero;stroke:black;stroke-width:14px;"/>
            <path d="M146.906,269.791L77.955,235.316" style="fill-opacity:0;fill-rule:nonzero;stroke:black;stroke-width:14px;"/>
            <path d="M146.906,49.149L77.955,14.673" style="fill-opacity:0;fill-rule:nonzero;stroke:black;stroke-width:14px;"/>
            <path d="M146.906,193.945L77.955,159.47" style="fill-opacity:0;fill-rule:nonzero;stroke:black;stroke-width:14px;"/>
        </g>
    </g>
</svg>
